<?xml version="1.0" encoding="UTF-8"?>
<svg id="Layer_1" data-name="Layer 1" xmlns="http://www.w3.org/2000/svg" version="1.1" viewBox="0 0 75 50.3">
  <defs>
    <style>
      .cls-1 {
        isolation: isolate;
      }

      .cls-2 {
        fill: #fff;
        stroke-width: 0px;
      }
    </style>
  </defs>
  <g id="Group_62" data-name="Group 62">
    <g id="Pantheon" class="cls-1">
      <g class="cls-1">
        <path class="cls-2" d="M.1,47.3v-.4c.3,0,.6,0,.7-.1s.2-.2.2-.5v-7.9c0-.3,0-.4-.2-.5s-.4-.1-.7-.1v-.4h3.2c1,0,1.8.2,2.5.5s1,1.1,1,2.2-.3,1.7-.9,2.1-1.2.6-2,.6h-1.4v3.6c0,.2,0,.4.2.5s.4.1.7.1v.4H.1ZM2.5,42h1.3c.6,0,1-.2,1.2-.5s.3-.9.3-1.6-.1-1.2-.4-1.4-.8-.3-1.4-.3h-1v3.9Z"/>
        <path class="cls-2" d="M10.3,47.3h-2.6v-.4c.4,0,.6,0,.8-.2s.3-.4.4-.7l2.9-8.6h1.2l2.9,8.6c0,.3.2.5.4.7s.4.2.8.2v.4h-3.4v-.4c.4,0,.6,0,.7-.2s0-.2,0-.3,0-.3,0-.4l-2.4-7.4-2.4,7.4c0,.2,0,.3,0,.5s0,.2,0,.3c.1.1.4.2.7.2v.4Z"/>
        <path class="cls-2" d="M26.5,37.4v.4c-.3,0-.5,0-.7.1s-.2.2-.2.5v7.9c0,.3,0,.4.2.5s.4.1.7.1v.4h-3.2v-.4c.3,0,.6,0,.7-.1s.2-.3.2-.5v-8.2h-4.4v8.2c0,.3,0,.4.2.5s.4.1.7.1v.4h-3.2v-.4c.3,0,.6,0,.7-.1s.2-.3.2-.5v-7.9c0-.2,0-.4-.2-.5s-.4-.1-.7-.1v-.4h9.1Z"/>
        <path class="cls-2" d="M29.8,47.3v-.4c.3,0,.6,0,.7-.1s.2-.2.2-.5v-8.2h-2.1c-.4,0-.6,0-.8.2s-.4.4-.5.8h-.4l.6-1.7h7.9l.6,1.7h-.4c-.1-.4-.3-.6-.5-.8s-.5-.2-.8-.2h-2.1v8.2c0,.2,0,.4.2.5s.4.1.7.1v.4h-3.2Z"/>
        <path class="cls-2" d="M36.3,47.3v-.4c.3,0,.6,0,.7-.1s.2-.2.2-.5v-7.9c0-.3,0-.4-.2-.5s-.4-.1-.7-.1v-.4h3.2v.4c-.3,0-.6,0-.7.1s-.2.3-.2.5v3.2h3.9v-3.2c0-.3,0-.4-.2-.5s-.4-.1-.7-.1v-.4h3.2v.4c-.3,0-.6,0-.7.1-.1,0-.2.2-.2.4,0,0,0,0,0,0v7.9c0,.2,0,.4.2.5s.4.1.7.1v.4h-3.2v-.4c.3,0,.6,0,.7-.1s.2-.2.2-.5v-4h-3.9v4c0,.2,0,.4.2.5s.4.1.7.1v.4h-3.2Z"/>
        <path class="cls-2" d="M45.4,47.3v-.4l4.6-4.6-4.6-4.6v-.4h7.8v1.7h-.4c0-.3,0-.6-.2-.7s-.4-.2-.8-.2h-4l3.8,3.8-4,4h4c.4,0,.7,0,.9-.3s.3-.4.3-.7h.4v2.5h-7.8Z"/>
        <path class="cls-2" d="M59.4,37.4c1.4,0,2.5.5,3.5,1.5,1,1,1.5,2.1,1.5,3.5s-.5,2.5-1.5,3.5c-1,1-2.1,1.5-3.5,1.5s-2.6-.5-3.5-1.5c-1-1-1.4-2.2-1.4-3.5s.5-2.5,1.4-3.5c1-1,2.1-1.4,3.5-1.4ZM59.1,38.1c-.9,0-1.7.5-2.3,1.3-.6.7-.9,1.6-.9,2.8s0,.3,0,.4c0,1.1.5,2,1.2,2.8s1.5,1.2,2.6,1.2c1.1,0,1.9-.5,2.4-1.3.5-.7.8-1.7.8-3s0-.2,0-.3c0-1.1-.5-2-1.2-2.8-.7-.8-1.5-1.1-2.5-1.1h-.1ZM57,40.9h.4c0,.2,0,.4.2.5s.3.2.6.2h2.6c.3,0,.5,0,.6-.2s.2-.3.2-.5h.4v2.9h-.4c0-.2,0-.4-.2-.5s-.3-.2-.6-.2h-2.6c-.3,0-.4,0-.5.2s-.2.3-.2.5h-.4v-2.9Z"/>
        <path class="cls-2" d="M74.4,37.4v.4c-.3,0-.5,0-.7.1s-.2.2-.2.5v7.9c0,.3,0,.4.2.5s.4.1.7.1v.4h-3.2v-.4c.3,0,.6,0,.7-.1s.2-.3.2-.5v-8.2h-4.4v8.2c0,.3,0,.4.2.5s.4.1.7.1v.4h-3.2v-.4c.3,0,.6,0,.7-.1s.2-.3.2-.5v-7.9c0-.2,0-.4-.2-.5s-.4-.1-.7-.1v-.4h9.1Z"/>
      </g>
    </g>
    <path id="Icon_map-museum" data-name="Icon map-museum" class="cls-2" d="M50.1,11.7h-3.3l-.5,15h4.2l-.4-15h0ZM52.8,27.5h-31.6v1.7h-2.5v2.5h-1.7v1.7h40v-1.7h-1.7v-2.5h-2.5v-1.7ZM19.5,7.3L37,0l17.5,7.3v1H19.5v-1ZM51.2,9.2h-28.3v1.7h28.3v-1.7ZM27.2,11.7h-3.3l-.5,15h4.2l-.4-15h0ZM34.8,11.7h-3.3l-.5,15h4.2l-.4-15h0ZM42.5,11.7h-3.3l-.5,15h4.2l-.4-15h0Z"/>
  </g>
</svg>